<?xml version="1.0" encoding="utf-8"?>
<!-- Generator: Adobe Illustrator 22.0.1, SVG Export Plug-In . SVG Version: 6.00 Build 0)  -->
<svg version="1.1" xmlns="http://www.w3.org/2000/svg" xmlns:xlink="http://www.w3.org/1999/xlink" x="0px" y="0px"
	 viewBox="0 0 381.7 133.2" style="enable-background:new 0 0 381.7 133.2;" xml:space="preserve">
<style type="text/css">
	.st0{display:none;}
	.st1{display:inline;fill:#111017;}
	.st2{display:inline;fill:#B20004;}
	.st3{display:inline;}
	.st4{fill:#B20004;}
	.st5{font-family:'Cinzel-Regular';}
	.st6{font-size:32.5528px;}
	.st7{fill:#FFFFFF;}
	.st8{font-family:'CinzelDecorative-Bold';}
	.st9{font-size:32.8315px;}
</style>
<g id="Camada_1" class="st0">
	<rect x="-43.7" y="-43.9" width="450" height="238.5"/>
	<rect x="-59.8" y="-23" class="st1" width="460.5" height="169"/>
	<g id="D_icon">
		<path class="st2" d="M44.8,27.4C44.2-4.2,15.5-20.3,0.9-21c-0.4,0-0.8,0-1.2,0c-0.7,0-1.6,0-2.7,0c-14.8,0.5-18.1,4.6-14.6,6.1
			c3.1,1.4,3.9,4.2,4.1,5.6c0,0.3,0.1,0.5,0.1,0.8l0,0l0,0c0.4,4,0.8,10.4,1.1,15.9c-0.1,0.2-0.1,0.3-0.1,0.3c0.3,4.3-1.6,11,0.7,11
			c2.7,0,0.4-6.7,0.5-11c0-0.1,0-0.1,0-0.2c0.3-9.2,0.6-20.7,2.4-21.2c5.8-1.4,26.1,7.7,26.6,40C18,44.9,10.8,55.1,4.1,61.1
			c-6.1,4.8-12.3,8.2-15-2.6c-0.7,11.2-4.2,11.1-3.7,13.9c0.4,2.4,7,4,9,18.1c0.8,8.2,1.7,18.9,2.4,27.5c0,0,0,0,0,0
			C-2.7,121.7-4.6,136-2,136c3.3,0,0-13.4,0.1-17.6c0,0,0-0.1,0-0.1c0-0.1,0-0.1,0-0.2c0.3-15.5,1.6-37.5,6.8-40.4
			c1.2,0,3,31.2,4.3,57.5c0.7,25.8-2.1,36.6,1.3,36.6c3.8,0-0.2-8.7-0.1-36.2c0.1-22.1,0.7-46.8,2.7-53.5
			c3.3-11.4,12.3-8.7,12.9-8.4c3.1,0.7,4.7,11.7,5.4,22.8l0,0c0.7,11.2-1.2,22.5,0.7,23.9c0,0,0,0,0,0s0,0,0,0
			c0.1,0.1,0.3,0.2,0.5,0.2c3.3,0,0-9.6-0.2-24c0.4-11.8,1.2-24.6,2.9-29.3C37.5,57.9,45.4,56.8,44.8,27.4z"/>
	</g>
	<g id="D_original">
		<path class="st2" d="M45,27.7c-0.7-31.8-29.5-48-44.2-48.7c-0.4,0-0.8,0-1.2,0c-0.7,0-1.6,0-2.8,0c-14.9,0.5-18.2,4.6-14.7,6.1
			c3.1,1.4,3.9,4.3,4.1,5.7c0,0.3,0.1,0.5,0.1,0.8l0,0l0,0c0.8,8.3,1.6,26.9,1.6,26.9c0.8-5,0.3-31.4,3-32.1
			c5.8-1.4,26.3,7.8,26.8,40.3c0.3,18.7-7,28.9-13.7,35c-6.2,4.9-12.4,8.2-15.1-2.7c-0.7,11.3-4.3,11.2-3.7,14c0.4,2.4,7,4,9.1,18.2
			C-4,107.7-2,134.2-2,134.2s-1.3-51.5,6.9-56.1c1.9,0,5.2,75.8,5.8,91c-0.5-18.4-0.8-75.8,2.4-86.6c3.3-11.4,12.4-8.7,13-8.5
			c5.2,1.2,6,30.3,6.1,42.2c0-11.7,0.3-40.9,3.2-48.5C37.7,58.3,45.6,57.2,45,27.7z"/>
		<path class="st2" d="M32.3,121.2c0,0,0-1.9,0-4.9C32.3,119.4,32.3,121.2,32.3,121.2z"/>
	</g>
	<g id="esconceito" class="st3">
		<path class="st4" d="M75.5,45.8c-1.5,4.8-4.6,7.7-9.4,7.7h-6.3V40h6.4c2.3,0.1,4,1.8,4,4.1v0.4l0.5,0V33.5l-0.5,0v0.4
			c0,2.3-1.7,4.1-4.1,4.1h-6.4V24h8.1c2.9,0.1,4.7,2,4.7,4.9v0.6l0.5,0v-8.4c-0.9,0.4-3.7,0.9-5.7,0.9H48.9l0,0.5h0.6
			c1.6,0,3,1.3,3.1,2.9v26.8c0,1.7-1.4,3-3.1,3h-0.6l0,0.5H65c0.1,0,5.8,0.4,7.1,1.4c1.4,1,1.9,13.3,1.9,13.3s-0.6-13.3,0.5-18.1
			l0,0l1.4-6.3H75.5z"/>
		<path class="st4" d="M163.6,21.3c-11.5,0-18.9,6.7-18.9,17.5c0,10.8,7.4,17.5,18.9,17.5s18.9-6.7,18.9-17.5
			C182.4,28,175.1,21.3,163.6,21.3z M163.6,54.2c-6.8,0-11-5.9-11-15.5c0-9.5,4.2-15.5,11-15.5s11,5.9,11,15.5
			C174.6,48.3,170.3,54.2,163.6,54.2z"/>
		<path class="st4" d="M219.8,50.1V25.3c0.1-1.6,1.4-2.9,3-2.9h0.9l0-0.5l-14.6,0l0,0.5h0.9c1.6,0,2.9,1.3,3,2.9v19l-24.2-23.1h-0.5
			c0,0,0.6,2.4,0.6,6v24.9c0,1.6-1.3,2.9-3,2.9H185l0,0.5h14.6l0-0.5h-0.9c-1.6,0-2.9-1.3-3-2.9V33.2l20.8,19.8
			c2.5,2.6,3.2,8.5,3.4,12.2"/>
		<path class="st4" d="M259.3,49.8l0-0.4c-0.1-2.8-0.2-5.3-0.4-7.1l0-0.8l-0.4,0c-1.5,9.4-5.2,12.7-12.6,12.7
			c-7.1-0.2-11.6-6.1-11.6-15.6c0-9.4,4.7-15.3,12.3-15.3c5.3,0,9.4,2.5,11.1,8.8h0.4l-0.1-8.2c-2.7-1.4-6.8-2.6-11.9-2.6
			c-12.2,0-19.6,6.7-19.6,17.4c0,11,7.7,17.5,19.5,17.5c4.4,0,7.6-1.1,10-2.7c0,0,0.1,0,0.2-0.1c3.3-2.6,3.6,11.6,3.6,11.6
			S259.6,56.9,259.3,49.8C259.3,49.8,259.3,49.8,259.3,49.8z"/>
		<path class="st4" d="M290.6,45.8h-0.5c-1.5,4.8-4.6,7.7-9.4,7.7h-6.3V40h6.4c2.3,0.1,4,1.8,4,4.1v0.4l0.5,0V33.5l-0.5,0v0.4
			c0,2.3-1.7,4.1-4.1,4.1h-6.4V24h8.1c2.9,0.1,4.7,2,4.7,4.9v0.6l0.5,0v-8.4c-0.9,0.4-3.7,0.9-5.7,0.9h-18.4l0,0.5h0.6
			c1.6,0,3,1.3,3.1,2.9v26.8c0,1.7-1.4,3-3.1,3h-0.6l0,0.5h16.1c0.1,0,5.8,0.4,7.1,1.4c1.4,1,1.9,3.9,1.9,3.9s-0.5-3.8,0.5-8.5
			L290.6,45.8z"/>
		<path class="st4" d="M307.6,55.1c-1.7,0-3-1.3-3.1-3V25.4c0-1.7,1.4-3,3.1-3h0.6l0-0.5h-14.6l0,0.5h0.6c1.7,0,3,1.3,3.1,3v26.6
			c0,1.7-1.4,3-3.1,3h-0.6l0,0.5h14.6l0-0.5H307.6z"/>
		<path class="st4" d="M341.5,21.1c-0.9,0.4-3.6,0.8-5.7,0.9h-19.3c-2.1,0-4.8-0.5-5.7-0.9v8.4l0.5,0v-0.6c0-2.9,1.9-4.8,4.8-4.9
			h6.5v28.2c-0.1,1.6-1.4,2.9-3.1,2.9h-0.6l0,0.5h14.6l0-0.5h-0.6c-1.7,0-3-1.3-3.1-3V24h6.4c1.7,0,3,0.7,3.8,1.8
			c1,1.5,1.4,8.4,1.4,8.4v-4.7l0,0L341.5,21.1z"/>
		<path class="st4" d="M362.9,21.3c-11.5,0-18.9,6.7-18.9,17.5c0,10.8,7.4,17.5,18.9,17.5s18.9-6.7,18.9-17.5
			C381.7,28,374.4,21.3,362.9,21.3z M362.9,54.2c-6.8,0-11-5.9-11-15.5c0-9.5,4.2-15.5,11-15.5s11,5.9,11,15.5
			C373.9,48.3,369.6,54.2,362.9,54.2z"/>
		<path class="st4" d="M139.6,41.7l0-0.2l-0.4,0c-1.5,9.4-5.2,12.7-12.6,12.7c-7.1-0.2-11.6-6.1-11.6-15.6c0-9.4,4.7-15.3,12.3-15.3
			c5.3,0,9.4,2.5,11.2,8.8h0.4l-0.1-8.2c-2.7-1.4-6.8-2.6-11.9-2.6c-12.2,0-19.6,6.7-19.6,17.4c0,11,7.7,17.5,19.5,17.5
			c4.4,0,7.7-1.1,10-2.7c0,0,0.1,0,0.2,0c3.3-2.6,3.6,11.6,3.6,11.6S140.2,47.6,139.6,41.7C139.6,41.7,139.6,41.7,139.6,41.7z"/>
		<path class="st4" d="M79.7,52.5C80.5,57,81,65.1,81,65.1s-0.4-11,0.9-10.4c0,0,0,0,0,0c2.1,1,5,1.6,8.1,1.6
			c7.7,0,12.4-3.7,12.7-9.9c0.2-3.6-1.5-6.1-4.3-8l-9.2-5.9c-2-1.3-3.5-2.6-3.3-4.5c0.1-2.6,2.5-4.6,6.3-4.6c4.1,0,6.8,2.2,6.8,5.5
			h0.5l0.6-7.1h-3c-2.2-0.3-5-0.5-6.5-0.5c-6.1,0-9.7,3.4-10.1,8.4c-0.3,3.5,1.3,6.4,4.6,8.6l8.4,5.5c2.6,1.7,3.8,3,3.8,5
			c0,3-2.5,5.3-6.6,5.4c-5.8,0.1-9.4-4-9.1-9H81c-1,1.7-1.7,4.8-1.4,6.9"/>
	</g>
	<text transform="matrix(1 0 0 1 227.839 90.4697)" class="st5 st6">Equipe</text>
	<text transform="matrix(1 0 0 1 50.7167 59.9795)" class="st7 st8 st9">esconceito</text>
	<g id="D" class="st3">
		<path class="st4" d="M44.3,33.7C43.8,11.7,24,0.6,13.8,0.1c-0.3,0-0.6,0-0.9,0c-0.5,0-1.1,0-1.9,0C0.7,0.3-1.5,3.2,0.9,4.3
			C3,5.2,3.6,7.2,3.7,8.2c0,0.2,0,0.4,0.1,0.6l0,0l0,0c0.5,5.8,1.1,18.6,1.1,18.6C5.5,23.9,5.1,5.7,7,5.2c4-0.9,18.1,5.4,18.5,27.8
			c0.2,12.9-4.8,19.9-9.5,24.1c-4.3,3.4-8.6,5.7-10.4-1.8C5.1,63,2.7,62.9,3,64.9c0.3,1.7,4.9,2.8,6.3,12.6
			c1.2,11.5,2.5,29.7,2.5,29.7S11,71.7,16.6,68.6c1.3,0,3.6,52.3,4,62.8c-0.4-12.7-0.5-52.3,1.7-59.7c2.3-7.9,8.5-6,9-5.9
			c3.6,0.8,4.2,20.9,4.2,29.1c0-8.1,0.2-28.2,2.2-33.5C39.2,54.9,44.7,54.1,44.3,33.7z"/>
		<path class="st4" d="M35.5,98.3c0,0,0-1.3,0-3.4C35.5,97,35.5,98.3,35.5,98.3z"/>
		<path class="st4" d="M20.6,131.3c0,0.7,0,1.3,0.1,1.8C20.7,133.2,20.6,132.5,20.6,131.3z"/>
	</g>
</g>
<g id="final">
	<path class="st4" d="M75.5,45.8c-1.5,4.8-4.6,7.7-9.4,7.7h-6.3V40h6.4c2.3,0.1,4,1.8,4,4.1v0.4l0.5,0V33.5l-0.5,0v0.4
		c0,2.3-1.7,4.1-4.1,4.1h-6.4V24h8.1c2.9,0.1,4.7,2,4.7,4.9v0.6l0.5,0v-8.4c-0.9,0.4-3.7,0.9-5.7,0.9H48.9l0,0.5h0.6
		c1.6,0,3,1.3,3.1,2.9v26.8c0,1.7-1.4,3-3.1,3h-0.6l0,0.5H65c0.1,0,5.8,0.4,7.1,1.4c1.4,1,1.9,3.6,1.9,3.6s-0.6-3.6,0.5-8.4l0,0
		l1.4-6.3H75.5z"/>
	<path class="st4" d="M163.6,21.3c-11.5,0-18.9,6.7-18.9,17.5c0,10.8,7.4,17.5,18.9,17.5s18.9-6.7,18.9-17.5
		C182.4,28,175.1,21.3,163.6,21.3z M163.6,54.2c-6.8,0-11-5.9-11-15.5c0-9.5,4.2-15.5,11-15.5s11,5.9,11,15.5
		C174.6,48.3,170.3,54.2,163.6,54.2z"/>
	<path class="st4" d="M219.8,50.1V25.3c0.1-1.6,1.4-2.9,3-2.9h0.9l0-0.5l-14.6,0l0,0.5h0.9c1.6,0,2.9,1.3,3,2.9v19l-24.2-23.1h-0.5
		c0,0,0.6,2.4,0.6,6v24.9c0,1.6-1.3,2.9-3,2.9H185l0,0.5h14.6l0-0.5h-0.9c-1.6,0-2.9-1.3-3-2.9V33.2l20.8,19.8
		c2.5,2.6,3.2,5,3.4,8.7"/>
	<path class="st4" d="M259.3,49.8l0-0.4c-0.1-2.8-0.2-5.3-0.4-7.1l0-0.8l-0.4,0c-1.5,9.4-5.2,12.7-12.6,12.7
		c-7.1-0.2-11.6-6.1-11.6-15.6c0-9.4,4.7-15.3,12.3-15.3c5.3,0,9.4,2.5,11.1,8.8h0.4l-0.1-8.2c-2.7-1.4-6.8-2.6-11.9-2.6
		c-12.2,0-19.6,6.7-19.6,17.4c0,11,7.7,17.5,19.5,17.5c4.4,0,7.6-1.1,10-2.7c0,0,0.1,0,0.2-0.1c3.3-2.6,3.6,4.3,3.6,4.3
		S259.6,56.9,259.3,49.8C259.3,49.8,259.3,49.8,259.3,49.8z"/>
	<path class="st4" d="M290.6,45.8h-0.5c-1.5,4.8-4.6,7.7-9.4,7.7h-6.3V40h6.4c2.3,0.1,4,1.8,4,4.1v0.4l0.5,0V33.5l-0.5,0v0.4
		c0,2.3-1.7,4.1-4.1,4.1h-6.4V24h8.1c2.9,0.1,4.7,2,4.7,4.9v0.6l0.5,0v-8.4c-0.9,0.4-3.7,0.9-5.7,0.9h-18.4l0,0.5h0.6
		c1.6,0,3,1.3,3.1,2.9v26.8c0,1.7-1.4,3-3.1,3h-0.6l0,0.5h16.1c0.1,0,5.8,0.4,7.1,1.4c1.4,1,1.9,3.9,1.9,3.9s-0.5-3.8,0.5-8.5
		L290.6,45.8z"/>
	<path class="st4" d="M307.6,55.1c-1.7,0-3-1.3-3.1-3V25.4c0-1.7,1.4-3,3.1-3h0.6l0-0.5h-14.6l0,0.5h0.6c1.7,0,3,1.3,3.1,3v26.6
		c0,1.7-1.4,3-3.1,3h-0.6l0,0.5h14.6l0-0.5H307.6z"/>
	<path class="st4" d="M341.5,21.1c-0.9,0.4-3.6,0.8-5.7,0.9h-19.3c-2.1,0-4.8-0.5-5.7-0.9v8.4l0.5,0v-0.6c0-2.9,1.9-4.8,4.8-4.9h6.5
		v28.2c-0.1,1.6-1.4,2.9-3.1,2.9h-0.6l0,0.5h14.6l0-0.5h-0.6c-1.7,0-3-1.3-3.1-3V24h6.4c1.7,0,3,0.7,3.8,1.8c1,1.5,1.4,8.4,1.4,8.4
		v-4.7l0,0L341.5,21.1z"/>
	<path class="st4" d="M362.9,21.3c-11.5,0-18.9,6.7-18.9,17.5c0,10.8,7.4,17.5,18.9,17.5s18.9-6.7,18.9-17.5
		C381.7,28,374.4,21.3,362.9,21.3z M362.9,54.2c-6.8,0-11-5.9-11-15.5c0-9.5,4.2-15.5,11-15.5s11,5.9,11,15.5
		C373.9,48.3,369.6,54.2,362.9,54.2z"/>
	<path class="st4" d="M139.6,41.7l0-0.2l-0.4,0c-1.5,9.4-5.2,12.7-12.6,12.7c-7.1-0.2-11.6-6.1-11.6-15.6c0-9.4,4.7-15.3,12.3-15.3
		c5.3,0,9.4,2.5,11.2,8.8h0.4l-0.1-8.2c-2.7-1.4-6.8-2.6-11.9-2.6c-12.2,0-19.6,6.7-19.6,17.4c0,11,7.7,17.5,19.5,17.5
		c4.4,0,7.7-1.1,10-2.7c0,0,0.1,0,0.2,0c3.3-2.6,3.6,4.3,3.6,4.3S140.2,47.6,139.6,41.7C139.6,41.7,139.6,41.7,139.6,41.7z"/>
	<path class="st4" d="M79.7,52.5C80.5,57,81,65.7,81,65.7s-0.4-11.5,0.9-11c0,0,0,0,0,0c2.1,1,5,1.6,8.1,1.6
		c7.7,0,12.4-3.7,12.7-9.9c0.2-3.6-1.5-6.1-4.3-8l-9.2-5.9c-2-1.3-3.5-2.6-3.3-4.5c0.1-2.6,2.5-4.6,6.3-4.6c4.1,0,6.8,2.2,6.8,5.5
		h0.5l0.6-7.1h-3c-2.2-0.3-5-0.5-6.5-0.5c-6.1,0-9.7,3.4-10.1,8.4c-0.3,3.5,1.3,6.4,4.6,8.6l8.4,5.5c2.6,1.7,3.8,3,3.8,5
		c0,3-2.5,5.3-6.6,5.4c-5.8,0.1-9.4-4-9.1-9H81c-1,1.7-1.7,4.8-1.4,6.9"/>
	<g id="D_1_">
		<path class="st4" d="M44.3,33.7C43.8,11.7,24,0.6,13.8,0.1c-0.3,0-0.6,0-0.9,0c-0.5,0-1.1,0-1.9,0C0.7,0.3-1.5,3.2,0.9,4.3
			C3,5.2,3.6,7.2,3.7,8.2c0,0.2,0,0.4,0.1,0.6l0,0l0,0c0.5,5.8,1.1,18.6,1.1,18.6C5.5,23.9,5.1,5.7,7,5.2c4-0.9,18.1,5.4,18.5,27.8
			c0.2,12.9-4.8,19.9-9.5,24.1c-4.3,3.4-8.6,5.7-10.4-1.8C5.1,63,2.7,62.9,3,64.9c0.3,1.7,4.9,2.8,6.3,12.6
			c1.2,11.5,2.5,29.7,2.5,29.7S11,71.7,16.6,68.6c1.3,0,3.6,52.3,4,62.8c-0.4-12.7-0.5-52.3,1.7-59.7c2.3-7.9,8.5-6,9-5.9
			c3.6,0.8,4.2,20.9,4.2,29.1c0-8.1,0.2-28.2,2.2-33.5C39.2,54.9,44.7,54.1,44.3,33.7z"/>
		<path class="st4" d="M35.5,98.3c0,0,0-1.3,0-3.4C35.5,97,35.5,98.3,35.5,98.3z"/>
		<path class="st4" d="M20.6,131.3c0,0.7,0,1.3,0.1,1.8C20.7,133.2,20.6,132.5,20.6,131.3z"/>
	</g>
</g>
<g id="final_spread">
</g>
</svg>
